<svg viewBox="0 0 18 18" xmlns="http://www.w3.org/2000/svg"><path d="M9.762 14.604a.56.56 0 0 1 0 .795l-.933.932a5.064 5.064 0 0 1-7.16-7.16l2.26-2.262a5.06 5.06 0 0 1 6.946-.205.564.564 0 1 1-.75.844 3.94 3.94 0 0 0-5.4.16L2.464 9.966a3.94 3.94 0 0 0 5.57 5.57l.932-.932a.56.56 0 0 1 .796 0m6.57-12.938a5.07 5.07 0 0 0-7.161 0l-.933.932a.563.563 0 1 0 .796.796l.932-.938a3.939 3.939 0 1 1 5.57 5.57l-2.261 2.269a3.94 3.94 0 0 1-5.4.16.565.565 0 0 0-.75.844 5.063 5.063 0 0 0 6.944-.205l2.26-2.262a5.064 5.064 0 0 0 .002-7.163z"/></svg>