<svg viewBox="0 0 19 19" xmlns="http://www.w3.org/2000/svg"><path d="M13.5 18.813C6.16 18.813.188 12.84.188 5.5A5.07 5.07 0 0 1 4.613.475a1.31 1.31 0 0 1 1.359.787L7.856 5.66a1.32 1.32 0 0 1-.103 1.238l-1.565 2.38a.2.2 0 0 0-.01.178 7.33 7.33 0 0 0 3.394 3.385.18.18 0 0 0 .178-.02l2.353-1.565a1.3 1.3 0 0 1 1.238-.112l4.397 1.884a1.31 1.31 0 0 1 .787 1.36 5.07 5.07 0 0 1-5.025 4.425M4.772 1.59h-.019a3.956 3.956 0 0 0-3.44 3.91A12.197 12.197 0 0 0 13.5 17.688a3.956 3.956 0 0 0 3.91-3.441.19.19 0 0 0-.113-.188L12.9 12.175a.2.2 0 0 0-.178.019l-2.344 1.565a1.33 1.33 0 0 1-1.294.094 8.5 8.5 0 0 1-3.918-3.91A1.31 1.31 0 0 1 5.25 8.66l1.556-2.38a.18.18 0 0 0 .019-.179L4.941 1.703a.19.19 0 0 0-.17-.112"/></svg>