<svg viewBox="0 0 20 20" xmlns="http://www.w3.org/2000/svg"><path d="M10 5.688a4.312 4.312 0 1 0 0 8.624 4.312 4.312 0 0 0 0-8.624m0 7.5A3.187 3.187 0 1 1 13.188 10 3.197 3.197 0 0 1 10 13.188M14.125.813h-8.25A5.063 5.063 0 0 0 .813 5.875v8.25a5.06 5.06 0 0 0 5.062 5.063h8.25a5.06 5.06 0 0 0 5.063-5.063v-8.25A5.063 5.063 0 0 0 14.125.813m3.938 13.312a3.937 3.937 0 0 1-3.938 3.938h-8.25a3.937 3.937 0 0 1-3.937-3.938v-8.25a3.937 3.937 0 0 1 3.937-3.937h8.25a3.937 3.937 0 0 1 3.938 3.937zm-2.25-9a.938.938 0 1 1-1.876 0 .938.938 0 0 1 1.876 0"/></svg>