<svg viewBox="0 0 20 21" xmlns="http://www.w3.org/2000/svg"><path d="M19 5.938a4.693 4.693 0 0 1-4.687-4.688.563.563 0 0 0-.563-.562H10a.563.563 0 0 0-.562.562v12.375A2.063 2.063 0 1 1 6.49 11.76a.56.56 0 0 0 .322-.508V7.25a.563.563 0 0 0-.657-.554c-3.262.58-5.718 3.559-5.718 6.929a6.938 6.938 0 0 0 13.875 0V9.587A9.5 9.5 0 0 0 19 10.813a.56.56 0 0 0 .563-.563V6.5A.563.563 0 0 0 19 5.938m-.562 3.73a8.36 8.36 0 0 1-4.36-1.564.562.562 0 0 0-.89.459v5.062a5.813 5.813 0 0 1-11.625 0c0-2.599 1.731-4.92 4.125-5.66v2.955a3.188 3.188 0 1 0 4.875 2.705V1.813h2.652a5.82 5.82 0 0 0 5.223 5.222z"/></svg>