<svg viewBox="0 0 18 21" xmlns="http://www.w3.org/2000/svg"><path d="M16.5.188h-15A1.31 1.31 0 0 0 .188 1.5V15A1.313 1.313 0 0 0 1.5 16.313h1.688V19.5a.562.562 0 0 0 .922.432l4.292-3.576a.2.2 0 0 1 .12-.044h3.956c.308.001.607-.107.844-.304l4.022-3.352a1.31 1.31 0 0 0 .468-1.008V1.5A1.313 1.313 0 0 0 16.5.188m.188 11.46a.2.2 0 0 1-.068.145l-4.022 3.351a.2.2 0 0 1-.12.043H8.522c-.308 0-.607.108-.844.305L4.313 18.3v-2.55a.56.56 0 0 0-.563-.562H1.5A.19.19 0 0 1 1.313 15V1.5a.187.187 0 0 1 .187-.187h15a.19.19 0 0 1 .188.187zM13.313 5.25v4.5a.562.562 0 1 1-1.126 0v-4.5a.563.563 0 0 1 1.126 0m-4.5 0v4.5a.562.562 0 1 1-1.126 0v-4.5a.563.563 0 1 1 1.125 0"/></svg>