<svg viewBox="0 0 20 20" xmlns="http://www.w3.org/2000/svg"><path d="m15.501 11.747-3-1.5a.56.56 0 0 0-.562.035l-1.47.98a4 4 0 0 1-1.73-1.73l.98-1.47a.56.56 0 0 0 .035-.562l-1.5-3a.56.56 0 0 0-.504-.312A3.56 3.56 0 0 0 4.188 7.75a8.07 8.07 0 0 0 8.062 8.063 3.56 3.56 0 0 0 3.563-3.563.56.56 0 0 0-.312-.503m-3.25 2.94A6.946 6.946 0 0 1 5.312 7.75a2.44 2.44 0 0 1 2.101-2.414L8.601 7.71l-.974 1.46a.56.56 0 0 0-.05.528 5.1 5.1 0 0 0 2.725 2.725.56.56 0 0 0 .528-.05l1.46-.974 2.374 1.187a2.44 2.44 0 0 1-2.414 2.101M10 .438a9.563 9.563 0 0 0-8.406 14.128L.506 17.834a1.313 1.313 0 0 0 1.66 1.66l3.27-1.09A9.563 9.563 0 1 0 10 .439m0 18a8.44 8.44 0 0 1-4.225-1.132.57.57 0 0 0-.46-.047L1.81 18.428a.188.188 0 0 1-.237-.237l1.168-3.501a.56.56 0 0 0-.047-.46A8.438 8.438 0 1 1 10 18.437"/></svg>