<svg viewBox="0 0 22 18" xmlns="http://www.w3.org/2000/svg"><path d="m14.312 8.531-4.5-3A.562.562 0 0 0 8.938 6v6a.563.563 0 0 0 .874.469l4.5-3a.563.563 0 0 0 0-.938m-4.25 2.418V7.051L12.987 9zm10.726-7.386a2.06 2.06 0 0 0-1.245-1.407C16.343.918 11.213.938 11 .938S5.656.918 2.454 2.156a2.06 2.06 0 0 0-1.242 1.407C.973 4.49.688 6.188.688 9s.285 4.51.525 5.438a2.06 2.06 0 0 0 1.245 1.406c3.198 1.238 8.328 1.219 8.542 1.219h.067c.647 0 5.437-.042 8.48-1.22a2.06 2.06 0 0 0 1.244-1.405c.24-.926.525-2.619.525-5.438s-.285-4.51-.528-5.437m-1.09 10.593a.94.94 0 0 1-.562.643c-3 1.156-8.082 1.139-8.136 1.139s-5.13.018-8.133-1.141a.94.94 0 0 1-.562-.644c-.226-.861-.493-2.455-.493-5.153s.267-4.292.49-5.156a.94.94 0 0 1 .562-.643c2.892-1.114 7.717-1.138 8.113-1.138H11c.05 0 5.13-.02 8.133 1.14a.94.94 0 0 1 .562.644c.223.861.49 2.455.49 5.156s-.264 4.289-.487 5.153"/></svg>