<svg viewBox="0 0 16 18" xmlns="http://www.w3.org/2000/svg"><path d="M7.813 0.218 C 7.739 0.238,7.015 0.948,4.272 3.688 C 2.376 5.583,0.800 7.172,0.771 7.218 C 0.742 7.265,0.711 7.362,0.702 7.434 C 0.653 7.848,1.078 8.171,1.461 8.012 C 1.531 7.983,2.425 7.109,4.493 5.046 L 7.427 2.120 7.440 9.773 C 7.452 16.840,7.457 17.433,7.498 17.507 C 7.719 17.907,8.283 17.909,8.501 17.509 C 8.544 17.432,8.548 16.909,8.560 9.773 L 8.573 2.120 11.507 5.044 C 13.120 6.652,14.478 7.987,14.525 8.010 C 14.629 8.063,14.851 8.066,14.968 8.017 C 15.065 7.977,15.243 7.791,15.281 7.690 C 15.322 7.583,15.310 7.382,15.256 7.267 C 15.221 7.193,14.143 6.099,11.743 3.702 C 8.737 0.701,8.266 0.241,8.173 0.216 C 8.046 0.182,7.940 0.182,7.813 0.218 " stroke="none" fill-rule="evenodd" fill="black"></path></svg>