<svg viewBox="0 0 18 12" xmlns="http://www.w3.org/2000/svg"><path d="M16.980 0.273 C 16.922 0.307,14.597 2.612,11.813 5.395 L 6.750 10.455 4.298 8.004 C 2.578 6.285,1.812 5.539,1.733 5.506 C 1.389 5.364,1.001 5.582,0.967 5.938 C 0.938 6.241,0.812 6.100,3.701 8.994 C 5.172 10.467,6.415 11.698,6.465 11.728 C 6.600 11.811,6.739 11.831,6.896 11.789 C 7.026 11.754,7.376 11.412,12.339 6.453 C 15.388 3.408,17.677 1.099,17.723 1.023 C 17.876 0.765,17.791 0.434,17.533 0.282 C 17.372 0.188,17.130 0.183,16.980 0.273 " stroke="none" fill-rule="evenodd" fill="black"></path></svg>