<svg viewBox="0 0 20 20" xmlns="http://www.w3.org/2000/svg"><path d="M9.517 0.456 C 8.072 0.545,6.894 0.861,5.652 1.494 C 3.940 2.366,2.488 3.782,1.595 5.451 C 1.014 6.536,0.702 7.495,0.512 8.786 C 0.430 9.343,0.430 10.656,0.512 11.217 C 0.840 13.449,1.785 15.340,3.322 16.835 C 4.829 18.302,6.607 19.166,8.786 19.488 C 9.396 19.579,10.689 19.570,11.330 19.471 C 12.853 19.236,14.136 18.742,15.333 17.931 C 17.365 16.552,18.753 14.543,19.314 12.167 C 19.491 11.415,19.545 10.916,19.546 10.017 C 19.547 9.109,19.511 8.753,19.335 7.950 C 18.549 4.365,15.718 1.503,12.150 0.688 C 11.314 0.497,10.299 0.407,9.517 0.456 M11.260 1.664 C 13.084 1.939,14.742 2.793,16.035 4.121 C 17.315 5.437,18.065 6.961,18.356 8.833 C 18.446 9.415,18.437 10.660,18.339 11.267 C 18.048 13.055,17.287 14.585,16.051 15.862 C 14.839 17.115,13.319 17.940,11.600 18.280 C 9.223 18.750,6.700 18.139,4.783 16.630 C 4.401 16.329,3.770 15.704,3.457 15.317 C 2.700 14.380,2.154 13.307,1.851 12.164 C 1.648 11.397,1.588 10.899,1.588 10.000 C 1.588 9.101,1.648 8.603,1.851 7.836 C 2.380 5.839,3.616 4.125,5.366 2.961 C 6.550 2.174,7.791 1.749,9.383 1.587 C 9.709 1.553,10.835 1.600,11.260 1.664 M9.362 4.984 C 9.276 5.011,9.134 5.099,9.042 5.182 C 8.393 5.765,8.792 6.801,9.664 6.800 C 10.144 6.799,10.567 6.359,10.567 5.862 C 10.567 5.692,10.457 5.411,10.333 5.260 C 10.125 5.007,9.682 4.881,9.362 4.984 M8.967 8.773 C 8.785 8.897,8.700 9.048,8.700 9.250 C 8.700 9.535,8.887 9.748,9.186 9.804 C 9.275 9.820,9.363 9.850,9.382 9.869 C 9.405 9.892,9.423 10.607,9.434 11.977 C 9.453 14.290,9.443 14.185,9.693 14.516 C 10.228 15.224,11.235 15.247,11.293 14.552 C 11.319 14.238,11.134 14.003,10.817 13.948 C 10.547 13.901,10.567 14.067,10.567 11.834 C 10.567 9.711,10.565 9.692,10.398 9.363 C 10.302 9.175,10.059 8.948,9.828 8.830 C 9.656 8.742,9.567 8.719,9.350 8.708 C 9.111 8.695,9.071 8.702,8.967 8.773 " stroke="none" fill-rule="evenodd" fill="black"></path></svg>