<svg viewBox="0 0 18 18" xmlns="http://www.w3.org/2000/svg"><path d="M12.263 0.211 C 11.257 0.316,10.310 0.708,9.540 1.337 C 9.244 1.578,8.138 2.703,8.102 2.799 C 7.976 3.133,8.210 3.523,8.561 3.562 C 8.818 3.591,8.873 3.552,9.630 2.806 C 10.358 2.087,10.575 1.914,11.025 1.688 C 11.614 1.393,12.105 1.279,12.795 1.279 C 13.175 1.279,13.339 1.293,13.581 1.345 C 15.175 1.686,16.365 2.909,16.666 4.514 C 16.731 4.860,16.730 5.530,16.665 5.895 C 16.572 6.419,16.333 6.993,16.011 7.470 C 15.902 7.630,15.441 8.113,14.402 9.152 C 12.887 10.666,12.752 10.785,12.255 11.033 C 11.626 11.348,10.807 11.501,10.132 11.431 C 9.355 11.351,8.622 11.058,8.046 10.596 C 7.774 10.379,7.691 10.338,7.514 10.340 C 7.162 10.343,6.921 10.628,6.969 10.985 C 6.991 11.147,7.088 11.277,7.338 11.477 C 7.938 11.959,8.690 12.308,9.510 12.485 C 9.934 12.576,10.962 12.585,11.385 12.501 C 12.248 12.331,13.056 11.955,13.695 11.428 C 13.810 11.333,14.521 10.636,15.274 9.880 C 16.795 8.352,16.937 8.183,17.274 7.512 C 18.378 5.312,17.740 2.659,15.750 1.172 C 15.395 0.907,14.760 0.582,14.314 0.438 C 13.695 0.237,12.876 0.147,12.263 0.211 M6.900 5.461 C 5.920 5.597,5.064 5.960,4.335 6.550 C 4.203 6.657,3.480 7.363,2.727 8.120 C 1.476 9.378,1.340 9.524,1.131 9.841 C 0.757 10.406,0.505 11.004,0.354 11.685 C 0.296 11.945,0.287 12.075,0.286 12.660 C 0.285 13.431,0.327 13.702,0.543 14.331 C 1.052 15.806,2.224 16.972,3.691 17.463 C 4.350 17.683,4.546 17.713,5.325 17.713 C 5.921 17.713,6.054 17.704,6.300 17.649 C 7.018 17.488,7.720 17.185,8.250 16.808 C 8.611 16.552,9.793 15.399,9.873 15.225 C 9.997 14.957,9.884 14.638,9.616 14.498 C 9.496 14.436,9.249 14.439,9.119 14.504 C 9.062 14.533,8.745 14.823,8.415 15.149 C 8.085 15.474,7.714 15.811,7.590 15.898 C 7.154 16.203,6.616 16.433,6.060 16.550 C 5.707 16.624,4.943 16.624,4.590 16.550 C 3.801 16.384,3.147 16.041,2.591 15.503 C 2.011 14.942,1.635 14.260,1.466 13.462 C 1.373 13.028,1.373 12.322,1.466 11.888 C 1.589 11.308,1.831 10.772,2.176 10.316 C 2.287 10.168,2.912 9.521,3.695 8.742 C 4.794 7.650,5.073 7.388,5.302 7.236 C 5.799 6.907,6.298 6.709,6.867 6.614 C 7.314 6.539,8.030 6.565,8.445 6.671 C 8.975 6.806,9.412 7.012,9.825 7.319 C 10.264 7.646,10.285 7.658,10.437 7.673 C 10.628 7.691,10.768 7.642,10.898 7.512 C 11.168 7.242,11.104 6.882,10.730 6.581 C 10.063 6.044,9.293 5.682,8.471 5.519 C 8.104 5.445,7.240 5.414,6.900 5.461 " stroke="none" fill-rule="evenodd" fill="black"></path></svg>