<svg viewBox="0 0 20 16" xmlns="http://www.w3.org/2000/svg"><path d="M0.717 0.776 C 0.629 0.825,0.558 0.901,0.508 1.000 L 0.433 1.149 0.441 7.716 L 0.450 14.283 0.526 14.470 C 0.676 14.842,0.985 15.131,1.367 15.256 C 1.542 15.314,1.934 15.317,10.000 15.317 C 18.066 15.317,18.458 15.314,18.633 15.256 C 19.015 15.131,19.324 14.842,19.474 14.470 L 19.550 14.283 19.559 7.716 L 19.567 1.149 19.492 1.000 C 19.442 0.901,19.371 0.825,19.283 0.776 L 19.150 0.701 10.000 0.701 L 0.850 0.701 0.717 0.776 M17.500 1.848 C 17.500 1.873,10.027 8.717,10.000 8.717 C 9.974 8.717,2.549 1.919,2.515 1.864 C 2.504 1.845,5.496 1.833,9.998 1.833 C 14.124 1.833,17.500 1.840,17.500 1.848 M5.733 6.351 C 7.833 8.275,9.598 9.890,9.657 9.939 C 9.787 10.046,9.980 10.084,10.157 10.036 C 10.281 10.003,11.761 8.661,17.892 3.026 L 18.433 2.528 18.433 8.297 C 18.433 14.022,18.433 14.067,18.367 14.133 C 18.300 14.200,18.256 14.200,10.000 14.200 C 1.744 14.200,1.700 14.200,1.633 14.133 C 1.567 14.067,1.567 14.022,1.567 8.295 L 1.567 2.524 1.742 2.688 C 1.838 2.778,3.634 4.427,5.733 6.351 " stroke="none" fill-rule="evenodd" fill="black"></path></svg>