<svg viewBox="0 0 19 19" xmlns="http://www.w3.org/2000/svg"><path d="M4.196 0.551 C 2.432 0.933,1.018 2.201,0.447 3.912 C 0.243 4.523,0.207 4.781,0.207 5.653 C 0.206 6.512,0.239 6.907,0.381 7.746 C 0.596 9.013,0.970 10.166,1.551 11.353 C 3.443 15.212,7.135 17.960,11.337 18.634 C 12.164 18.767,12.492 18.793,13.332 18.793 C 14.052 18.793,14.174 18.785,14.464 18.722 C 15.783 18.432,16.818 17.772,17.592 16.726 C 18.139 15.986,18.551 14.844,18.518 14.155 C 18.508 13.934,18.487 13.848,18.405 13.678 C 18.290 13.437,18.047 13.189,17.810 13.070 C 17.595 12.961,13.313 11.132,13.162 11.083 C 12.963 11.020,12.527 11.055,12.318 11.151 C 12.222 11.195,11.602 11.593,10.940 12.034 C 10.279 12.475,9.706 12.843,9.667 12.850 C 9.548 12.873,8.854 12.472,8.344 12.085 C 7.518 11.457,6.806 10.629,6.334 9.744 C 6.217 9.525,6.172 9.409,6.182 9.348 C 6.189 9.301,6.556 8.716,6.996 8.049 C 7.436 7.381,7.822 6.775,7.854 6.703 C 7.984 6.409,7.992 6.036,7.875 5.716 C 7.808 5.535,5.995 1.310,5.913 1.145 C 5.812 0.943,5.488 0.654,5.267 0.568 C 4.992 0.463,4.631 0.457,4.196 0.551 M4.872 1.639 C 4.955 1.708,6.851 6.129,6.831 6.206 C 6.823 6.236,6.463 6.801,6.032 7.461 C 5.177 8.767,5.117 8.870,5.063 9.122 C 4.981 9.505,5.082 9.846,5.470 10.501 C 6.017 11.423,6.700 12.214,7.505 12.858 C 8.143 13.368,9.115 13.918,9.453 13.959 C 9.699 13.990,9.978 13.951,10.179 13.859 C 10.268 13.818,10.881 13.425,11.542 12.984 C 12.203 12.543,12.767 12.176,12.796 12.168 C 12.871 12.149,17.293 14.047,17.361 14.128 C 17.425 14.204,17.417 14.295,17.305 14.741 C 17.082 15.633,16.467 16.495,15.684 17.016 C 15.227 17.321,14.743 17.519,14.188 17.629 C 13.838 17.699,12.933 17.697,12.261 17.625 C 7.452 17.113,3.412 13.852,1.916 9.276 C 1.545 8.141,1.370 7.112,1.341 5.890 C 1.321 5.069,1.348 4.806,1.507 4.302 C 1.597 4.017,1.818 3.555,1.973 3.325 C 2.550 2.471,3.455 1.856,4.434 1.651 C 4.809 1.572,4.793 1.572,4.872 1.639 " stroke="none" fill-rule="evenodd" fill="black"></path></svg>