<svg viewBox="0 0 18 18" xmlns="http://www.w3.org/2000/svg"><path d="M8.874 0.210 C 8.738 0.235,8.567 0.361,8.497 0.489 C 8.448 0.579,8.444 0.838,8.437 4.508 L 8.429 8.430 4.582 8.431 C 2.381 8.431,0.685 8.443,0.617 8.459 C 0.193 8.557,0.046 9.083,0.356 9.393 C 0.417 9.454,0.520 9.518,0.586 9.537 C 0.670 9.560,1.842 9.570,4.567 9.570 L 8.430 9.570 8.430 13.432 C 8.430 16.158,8.440 17.330,8.463 17.414 C 8.508 17.574,8.683 17.745,8.848 17.790 C 9.149 17.870,9.457 17.699,9.539 17.407 C 9.559 17.332,9.570 15.997,9.570 13.432 L 9.570 9.570 13.432 9.570 C 16.158 9.570,17.330 9.560,17.414 9.537 C 17.480 9.518,17.583 9.454,17.644 9.393 C 17.954 9.083,17.807 8.557,17.383 8.459 C 17.315 8.443,15.619 8.431,13.418 8.431 L 9.571 8.430 9.563 4.508 C 9.555 0.616,9.555 0.584,9.494 0.480 C 9.372 0.273,9.125 0.165,8.874 0.210 " stroke="none" fill-rule="evenodd" fill="black"></path></svg>