<svg viewBox="0 0 22 14" xmlns="http://www.w3.org/2000/svg"><path d="M0.728 0.518 C 0.655 0.561,0.560 0.658,0.517 0.734 L 0.440 0.872 0.440 7.003 L 0.440 13.135 0.518 13.273 C 0.560 13.349,0.657 13.446,0.733 13.489 C 0.871 13.567,0.878 13.567,4.189 13.567 C 7.765 13.567,7.813 13.564,8.378 13.371 C 9.593 12.957,10.477 12.002,10.828 10.725 C 10.897 10.474,10.908 10.342,10.906 9.808 C 10.903 9.122,10.860 8.891,10.631 8.343 C 10.288 7.517,9.528 6.753,8.680 6.381 L 8.395 6.256 8.519 6.126 C 8.856 5.771,9.127 5.297,9.296 4.767 C 9.377 4.515,9.399 4.362,9.414 3.969 C 9.426 3.669,9.416 3.396,9.390 3.254 C 9.137 1.921,8.223 0.921,6.911 0.545 C 6.619 0.461,6.615 0.461,3.740 0.450 L 0.862 0.440 0.728 0.518 M6.591 1.632 C 7.347 1.810,7.976 2.407,8.213 3.172 C 8.323 3.529,8.324 4.096,8.213 4.455 C 8.000 5.148,7.455 5.715,6.785 5.940 C 6.403 6.068,6.042 6.085,3.749 6.086 L 1.577 6.087 1.577 3.832 L 1.577 1.577 3.969 1.577 C 5.948 1.578,6.401 1.587,6.591 1.632 M13.493 2.011 C 13.422 2.049,13.326 2.135,13.279 2.204 C 13.208 2.308,13.196 2.363,13.208 2.540 C 13.221 2.720,13.241 2.770,13.348 2.879 C 13.416 2.950,13.534 3.025,13.609 3.045 C 13.697 3.068,14.847 3.078,16.819 3.072 C 19.816 3.062,19.895 3.060,20.016 2.988 C 20.185 2.889,20.278 2.755,20.302 2.575 C 20.330 2.364,20.212 2.129,20.024 2.023 L 19.882 1.943 16.751 1.943 C 13.775 1.943,13.614 1.947,13.493 2.011 M15.984 5.007 C 14.665 5.246,13.508 6.108,12.903 7.305 C 12.049 8.995,12.393 11.028,13.755 12.339 C 14.535 13.091,15.456 13.494,16.525 13.555 C 17.622 13.616,18.703 13.248,19.552 12.524 C 19.868 12.254,19.958 12.115,19.959 11.896 C 19.959 11.581,19.727 11.367,19.386 11.367 C 19.201 11.367,19.166 11.381,18.995 11.523 C 18.412 12.004,18.191 12.135,17.673 12.305 C 17.386 12.400,17.317 12.408,16.775 12.409 C 16.085 12.411,15.902 12.372,15.345 12.101 C 14.494 11.689,13.848 10.879,13.643 9.970 L 13.611 9.827 17.103 9.827 L 20.595 9.827 20.754 9.743 C 20.986 9.620,21.056 9.463,21.050 9.076 C 21.042 8.508,20.882 7.881,20.602 7.324 C 20.392 6.906,20.202 6.637,19.877 6.294 C 19.033 5.406,17.948 4.945,16.728 4.953 C 16.471 4.955,16.137 4.979,15.984 5.007 M17.348 6.108 C 17.710 6.176,18.022 6.295,18.383 6.501 C 18.716 6.692,19.289 7.261,19.480 7.590 C 19.642 7.870,19.818 8.314,19.854 8.534 L 19.880 8.690 16.745 8.690 L 13.610 8.690 13.660 8.473 C 13.944 7.260,14.980 6.300,16.237 6.088 C 16.529 6.038,17.028 6.047,17.348 6.108 M7.828 7.272 C 8.798 7.555,9.522 8.295,9.736 9.219 C 9.804 9.513,9.813 10.093,9.754 10.357 C 9.568 11.185,8.962 11.914,8.189 12.240 C 7.697 12.447,7.779 12.442,4.556 12.457 L 1.577 12.471 1.577 9.827 L 1.577 7.183 4.593 7.195 C 7.338 7.206,7.628 7.213,7.828 7.272 " stroke="none" fill-rule="evenodd" fill="black"></path></svg>