<svg viewBox="0 0 20 20" xmlns="http://www.w3.org/2000/svg"><path d="M9.317 0.469 C 8.055 0.559,6.949 0.863,5.750 1.450 C 3.429 2.587,1.698 4.610,0.883 7.140 C 0.576 8.094,0.455 8.898,0.453 9.983 C 0.450 11.559,0.738 12.801,1.433 14.217 C 1.922 15.213,2.469 15.977,3.247 16.751 C 5.565 19.056,8.821 20.023,11.996 19.349 C 14.295 18.861,16.387 17.491,17.763 15.571 C 19.904 12.583,20.151 8.611,18.395 5.422 C 17.393 3.603,15.825 2.149,13.936 1.287 C 12.513 0.638,10.918 0.355,9.317 0.469 M11.250 1.663 C 12.440 1.844,13.533 2.254,14.528 2.891 L 14.805 3.069 14.567 3.333 C 14.039 3.918,13.221 4.646,12.494 5.175 C 12.093 5.467,11.324 5.967,11.276 5.967 C 11.260 5.967,11.129 5.805,10.983 5.608 C 10.509 4.968,10.068 4.462,9.437 3.832 C 8.777 3.174,8.410 2.855,7.720 2.340 L 7.291 2.018 7.401 1.974 C 7.706 1.849,8.612 1.661,9.200 1.600 C 9.651 1.554,10.755 1.587,11.250 1.663 M6.368 2.770 C 7.699 3.630,9.046 4.900,10.049 6.243 C 10.163 6.396,10.231 6.515,10.214 6.532 C 10.152 6.591,9.199 6.979,8.683 7.155 C 6.593 7.867,4.490 8.087,2.241 7.829 C 2.052 7.808,1.891 7.779,1.883 7.766 C 1.875 7.753,1.912 7.609,1.964 7.446 C 2.598 5.493,3.901 3.841,5.637 2.792 C 5.841 2.668,6.018 2.567,6.030 2.567 C 6.042 2.567,6.194 2.658,6.368 2.770 M16.055 4.142 C 16.468 4.567,16.737 4.903,17.075 5.417 C 17.352 5.838,17.721 6.561,17.898 7.029 C 18.130 7.640,18.341 8.572,18.389 9.191 L 18.410 9.470 17.897 9.448 C 16.673 9.394,14.991 9.585,13.639 9.931 C 13.374 9.999,13.258 10.016,13.249 9.989 C 12.930 9.042,12.494 8.043,12.057 7.261 L 11.877 6.938 12.413 6.588 C 13.467 5.900,14.210 5.295,15.083 4.411 C 15.413 4.077,15.692 3.803,15.703 3.802 C 15.714 3.801,15.872 3.954,16.055 4.142 M11.191 8.037 C 11.537 8.683,12.121 10.039,12.173 10.317 C 12.181 10.360,12.090 10.410,11.783 10.532 C 8.950 11.660,6.537 13.554,4.796 16.018 L 4.526 16.400 4.405 16.304 C 4.229 16.164,3.682 15.591,3.447 15.300 C 2.172 13.722,1.501 11.728,1.579 9.750 C 1.591 9.457,1.610 9.144,1.622 9.054 L 1.643 8.892 1.813 8.912 C 2.793 9.031,3.035 9.046,4.017 9.046 C 5.591 9.047,6.756 8.891,8.217 8.483 C 8.993 8.266,10.171 7.824,10.683 7.557 C 10.889 7.450,10.866 7.428,11.191 8.037 M18.225 10.588 C 18.399 10.609,18.400 10.610,18.400 10.725 C 18.400 10.946,18.298 11.552,18.179 12.033 C 17.804 13.558,17.019 14.924,15.879 16.035 C 15.284 16.615,14.707 17.047,14.053 17.402 L 13.789 17.545 13.812 17.434 C 13.930 16.843,14.009 15.828,14.011 14.867 C 14.013 13.960,13.978 13.432,13.862 12.617 C 13.802 12.192,13.624 11.268,13.581 11.157 C 13.534 11.032,15.380 10.682,16.500 10.603 C 16.982 10.569,17.994 10.560,18.225 10.588 M12.547 11.697 C 12.998 13.679,12.999 16.063,12.551 17.987 C 12.537 18.046,12.463 18.074,12.042 18.178 C 11.341 18.351,10.971 18.401,10.248 18.423 C 9.059 18.459,7.997 18.275,6.900 17.843 C 6.228 17.578,5.411 17.133,5.455 17.056 C 5.548 16.895,5.915 16.386,6.165 16.070 C 7.541 14.333,9.239 12.972,11.247 11.997 C 11.711 11.771,12.404 11.472,12.472 11.468 C 12.485 11.467,12.518 11.570,12.547 11.697 " stroke="none" fill-rule="evenodd" fill="black"></path></svg>