<svg viewBox="0 0 20 20" xmlns="http://www.w3.org/2000/svg"><path d="M9.348 0.466 C 8.038 0.562,6.978 0.850,5.783 1.435 C 3.750 2.430,2.138 4.112,1.236 6.183 C -0.059 9.156,0.245 12.614,2.036 15.287 C 2.545 16.046,3.339 16.919,4.000 17.445 C 5.655 18.762,7.583 19.478,9.683 19.555 C 12.977 19.675,16.137 18.039,17.978 15.260 C 19.932 12.309,20.088 8.494,18.380 5.394 C 17.949 4.613,17.435 3.934,16.768 3.263 C 15.997 2.487,15.221 1.928,14.250 1.448 C 13.426 1.041,12.734 0.800,11.917 0.636 C 11.154 0.483,10.081 0.412,9.348 0.466 M11.200 1.651 C 11.675 1.724,12.085 1.815,12.483 1.937 C 15.460 2.849,17.758 5.437,18.296 8.483 C 18.731 10.942,18.105 13.381,16.543 15.317 C 16.234 15.699,15.603 16.326,15.224 16.626 C 14.046 17.559,12.570 18.177,11.067 18.366 C 10.911 18.386,10.735 18.408,10.675 18.416 L 10.567 18.429 10.567 15.248 L 10.567 12.067 11.818 12.067 C 13.202 12.067,13.206 12.066,13.391 11.856 C 13.510 11.720,13.552 11.560,13.517 11.375 C 13.488 11.219,13.257 10.986,13.101 10.955 C 13.041 10.943,12.446 10.933,11.779 10.933 L 10.567 10.933 10.567 9.635 C 10.567 8.816,10.580 8.271,10.604 8.160 C 10.706 7.666,11.055 7.225,11.527 6.991 L 11.811 6.850 12.864 6.833 C 13.769 6.818,13.931 6.807,14.021 6.759 C 14.408 6.550,14.442 6.050,14.087 5.785 C 14.000 5.720,13.945 5.716,12.973 5.707 C 12.136 5.699,11.903 5.707,11.686 5.751 C 10.974 5.895,10.323 6.336,9.921 6.945 C 9.713 7.259,9.625 7.450,9.525 7.800 C 9.458 8.035,9.453 8.139,9.441 9.492 L 9.429 10.933 8.173 10.934 C 7.026 10.935,6.905 10.940,6.782 10.996 C 6.416 11.162,6.324 11.576,6.588 11.868 C 6.657 11.944,6.758 12.013,6.828 12.032 C 6.900 12.053,7.455 12.066,8.192 12.066 L 9.433 12.067 9.433 15.248 L 9.433 18.429 9.325 18.416 C 9.265 18.408,9.089 18.386,8.933 18.366 C 7.364 18.169,5.824 17.503,4.633 16.507 C 2.268 14.529,1.166 11.511,1.704 8.483 C 2.009 6.768,2.842 5.213,4.126 3.961 C 5.454 2.667,7.158 1.843,8.940 1.636 C 9.110 1.616,9.303 1.594,9.367 1.586 C 9.628 1.556,10.867 1.599,11.200 1.651 " stroke="none" fill-rule="evenodd" fill="black"></path></svg>