<svg viewBox="0 0 20 20" xmlns="http://www.w3.org/2000/svg"><path d="M5.117 0.870 C 4.769 0.921,4.262 1.065,3.917 1.212 C 2.274 1.909,1.134 3.380,0.863 5.150 C 0.797 5.578,0.795 14.406,0.860 14.833 C 1.172 16.869,2.611 18.491,4.568 19.011 C 5.238 19.189,5.049 19.183,10.000 19.183 C 14.889 19.183,14.740 19.188,15.383 19.028 C 17.135 18.592,18.592 17.135,19.028 15.383 C 19.188 14.740,19.183 14.891,19.183 9.983 C 19.183 5.680,19.179 5.328,19.124 5.042 C 18.909 3.925,18.449 3.045,17.682 2.283 C 17.011 1.617,16.196 1.170,15.203 0.924 C 14.918 0.853,14.891 0.853,10.117 0.847 C 7.477 0.843,5.227 0.854,5.117 0.870 M14.886 2.008 C 16.326 2.334,17.426 3.314,17.865 4.662 C 18.056 5.251,18.050 5.066,18.050 10.000 C 18.050 14.940,18.057 14.748,17.863 15.345 C 17.404 16.753,16.173 17.797,14.710 18.017 C 14.223 18.090,5.777 18.090,5.290 18.017 C 3.631 17.767,2.301 16.468,1.996 14.800 C 1.928 14.431,1.928 5.569,1.996 5.200 C 2.258 3.765,3.285 2.585,4.662 2.135 C 4.912 2.053,5.172 2.000,5.550 1.954 C 5.605 1.948,7.675 1.945,10.150 1.948 C 14.142 1.954,14.677 1.960,14.886 2.008 M14.482 4.279 C 14.165 4.426,13.933 4.789,13.933 5.138 C 13.933 5.339,14.059 5.628,14.216 5.784 C 14.372 5.941,14.661 6.067,14.862 6.067 C 15.369 6.067,15.799 5.644,15.800 5.146 C 15.800 4.752,15.632 4.471,15.293 4.302 C 15.028 4.169,14.735 4.161,14.482 4.279 M9.467 5.720 C 8.601 5.878,8.225 6.021,7.600 6.425 C 7.250 6.651,6.675 7.221,6.437 7.575 C 5.938 8.322,5.700 9.104,5.700 10.000 C 5.700 11.189,6.116 12.189,6.964 13.036 C 7.811 13.884,8.811 14.300,10.000 14.300 C 11.189 14.300,12.189 13.884,13.036 13.036 C 13.884 12.189,14.300 11.189,14.300 10.000 C 14.300 8.811,13.885 7.814,13.036 6.962 C 12.427 6.351,11.730 5.966,10.900 5.783 C 10.658 5.730,9.655 5.686,9.467 5.720 M10.660 6.886 C 11.330 7.022,12.024 7.441,12.446 7.965 C 12.946 8.584,13.170 9.215,13.170 10.000 C 13.170 10.451,13.105 10.811,12.958 11.167 C 12.697 11.795,12.311 12.275,11.769 12.643 C 10.868 13.253,9.679 13.354,8.689 12.905 C 7.787 12.496,7.081 11.617,6.886 10.660 C 6.817 10.325,6.817 9.675,6.886 9.340 C 6.999 8.783,7.336 8.163,7.749 7.749 C 8.154 7.345,8.777 7.003,9.317 6.888 C 9.635 6.821,10.335 6.819,10.660 6.886 " stroke="none" fill-rule="evenodd" fill="black"></path></svg>