<svg viewBox="0 0 18 20" xmlns="http://www.w3.org/2000/svg"><path d="M8.250 0.479 C 5.987 0.701,3.911 1.865,2.550 3.674 C 1.743 4.749,1.182 6.129,1.007 7.471 C 0.829 8.835,0.997 10.182,1.506 11.475 C 1.678 11.910,1.972 12.490,2.095 12.634 C 2.329 12.907,2.699 12.915,2.932 12.650 C 3.043 12.523,3.102 12.335,3.073 12.200 C 3.062 12.148,2.967 11.939,2.863 11.736 C 2.513 11.055,2.282 10.366,2.157 9.630 C 2.101 9.295,2.089 9.109,2.087 8.550 C 2.085 7.834,2.110 7.573,2.239 6.990 C 2.354 6.470,2.529 5.975,2.774 5.475 C 3.809 3.359,5.771 1.947,8.115 1.632 C 8.507 1.579,9.414 1.572,9.795 1.619 C 12.181 1.909,14.178 3.327,15.227 5.475 C 15.556 6.150,15.732 6.709,15.860 7.485 C 15.936 7.943,15.936 9.107,15.860 9.596 C 15.453 12.220,13.730 14.143,11.365 14.615 C 11.084 14.671,10.928 14.683,10.470 14.682 C 9.651 14.681,9.106 14.570,8.501 14.282 C 8.000 14.043,7.609 13.740,7.321 13.366 L 7.195 13.202 8.011 9.731 C 8.620 7.136,8.823 6.230,8.811 6.143 C 8.788 5.972,8.667 5.808,8.505 5.730 C 8.228 5.596,7.902 5.702,7.762 5.972 C 7.680 6.129,4.673 18.955,4.691 19.071 C 4.736 19.365,4.958 19.560,5.248 19.560 C 5.506 19.560,5.707 19.413,5.785 19.170 C 5.803 19.112,6.055 18.053,6.345 16.816 C 6.635 15.580,6.875 14.565,6.879 14.561 C 6.883 14.557,6.960 14.616,7.050 14.691 C 7.748 15.271,8.676 15.649,9.719 15.779 C 10.095 15.825,10.897 15.817,11.284 15.763 C 12.395 15.608,13.477 15.135,14.400 14.399 C 14.716 14.148,15.252 13.599,15.514 13.260 C 17.133 11.164,17.522 8.056,16.484 5.512 C 16.052 4.455,15.468 3.579,14.658 2.775 C 13.448 1.572,11.902 0.798,10.187 0.536 C 9.746 0.468,8.681 0.437,8.250 0.479 " stroke="none" fill-rule="evenodd" fill="black"></path></svg>