<svg viewBox="0 0 20 21" xmlns="http://www.w3.org/2000/svg"><path d="M9.717 0.776 C 9.629 0.825,9.558 0.901,9.508 0.999 L 9.433 1.147 9.433 7.492 C 9.433 14.598,9.451 14.073,9.189 14.583 C 8.993 14.964,8.668 15.283,8.297 15.460 C 7.941 15.629,7.722 15.681,7.367 15.680 C 6.803 15.679,6.357 15.492,5.946 15.085 C 5.513 14.656,5.330 14.224,5.330 13.629 C 5.330 13.232,5.370 13.060,5.544 12.701 C 5.708 12.364,6.002 12.046,6.333 11.851 C 6.452 11.781,6.585 11.692,6.628 11.653 C 6.805 11.495,6.800 11.566,6.800 9.240 L 6.800 7.077 6.724 6.964 C 6.683 6.902,6.596 6.816,6.533 6.772 C 6.429 6.702,6.391 6.695,6.183 6.711 C 5.852 6.737,5.182 6.931,4.691 7.143 C 2.699 8.005,1.194 9.788,0.652 11.927 C 0.463 12.670,0.396 13.463,0.464 14.155 C 0.785 17.453,3.298 20.035,6.576 20.435 C 7.001 20.487,8.150 20.459,8.533 20.387 C 9.977 20.115,11.171 19.509,12.179 18.535 C 13.330 17.422,14.023 16.056,14.251 14.450 C 14.289 14.188,14.299 13.630,14.299 11.858 C 14.300 10.616,14.309 9.600,14.320 9.600 C 14.330 9.600,14.432 9.652,14.545 9.714 C 14.877 9.900,15.548 10.180,16.050 10.343 C 16.888 10.615,17.656 10.757,18.498 10.794 C 19.216 10.826,19.368 10.779,19.504 10.483 C 19.561 10.359,19.565 10.220,19.566 8.374 C 19.567 6.215,19.571 6.260,19.372 6.093 C 19.229 5.973,19.109 5.942,18.683 5.920 C 17.041 5.831,15.511 4.797,14.785 3.283 C 14.507 2.704,14.383 2.221,14.333 1.527 C 14.302 1.092,14.279 1.010,14.154 0.872 C 13.994 0.695,14.055 0.700,11.877 0.701 L 9.850 0.701 9.717 0.776 M13.233 1.936 C 13.233 2.120,13.367 2.707,13.499 3.103 C 13.800 4.008,14.265 4.736,14.989 5.435 C 15.853 6.270,16.897 6.794,18.079 6.987 L 18.433 7.044 18.433 8.355 L 18.433 9.667 18.342 9.667 C 18.205 9.666,17.417 9.546,17.150 9.485 C 16.181 9.263,15.231 8.862,14.417 8.330 C 13.997 8.056,13.879 8.000,13.726 8.001 C 13.591 8.001,13.380 8.118,13.286 8.244 C 13.217 8.337,13.217 8.362,13.197 11.227 C 13.179 13.985,13.175 14.134,13.107 14.500 C 12.940 15.409,12.653 16.117,12.164 16.833 C 11.256 18.162,9.847 19.044,8.217 19.305 C 7.815 19.370,6.823 19.359,6.417 19.286 C 5.245 19.076,4.216 18.558,3.377 17.755 C 2.385 16.807,1.793 15.641,1.618 14.290 C 1.310 11.915,2.583 9.501,4.741 8.366 C 5.020 8.220,5.427 8.044,5.625 7.985 L 5.700 7.962 5.698 9.439 L 5.696 10.917 5.444 11.100 C 4.827 11.548,4.376 12.289,4.233 13.089 C 4.172 13.429,4.206 14.146,4.299 14.464 C 4.904 16.558,7.306 17.466,9.116 16.287 C 9.784 15.851,10.237 15.215,10.477 14.373 L 10.550 14.117 10.559 7.975 L 10.568 1.833 11.901 1.833 L 13.233 1.833 13.233 1.936 " stroke="none" fill-rule="evenodd" fill="black"></path></svg>