<svg viewBox="0 0 18 21" xmlns="http://www.w3.org/2000/svg"><path d="M1.266 0.214 C 0.920 0.271,0.519 0.556,0.352 0.863 C 0.171 1.196,0.181 0.755,0.181 8.250 C 0.181 15.739,0.171 15.305,0.351 15.635 C 0.445 15.809,0.720 16.078,0.893 16.166 C 1.152 16.299,1.338 16.319,2.288 16.320 L 3.180 16.320 3.180 17.933 C 3.180 19.016,3.191 19.584,3.213 19.664 C 3.258 19.823,3.433 19.995,3.597 20.039 C 3.787 20.090,3.936 20.053,4.133 19.906 C 4.228 19.835,5.237 18.999,6.375 18.049 L 8.445 16.321 10.515 16.320 C 12.724 16.319,12.796 16.315,13.082 16.169 C 13.148 16.135,14.164 15.306,15.339 14.326 C 17.567 12.468,17.593 12.444,17.738 12.088 L 17.805 11.925 17.814 6.690 C 17.820 2.856,17.814 1.407,17.789 1.275 C 17.737 1.003,17.621 0.786,17.417 0.583 C 17.207 0.373,16.985 0.257,16.707 0.212 C 16.466 0.173,1.501 0.174,1.266 0.214 M16.625 1.370 C 16.678 1.417,16.680 1.618,16.680 6.567 C 16.679 9.398,16.669 11.730,16.657 11.749 C 16.645 11.768,15.718 12.547,14.596 13.482 L 12.558 15.180 10.514 15.180 C 8.347 15.180,8.241 15.186,7.951 15.323 C 7.840 15.375,7.221 15.873,6.069 16.835 C 5.125 17.624,4.345 18.270,4.336 18.270 C 4.327 18.270,4.320 17.693,4.320 16.988 C 4.320 16.198,4.308 15.662,4.289 15.593 C 4.251 15.459,4.136 15.316,4.009 15.246 C 3.925 15.201,3.778 15.194,2.671 15.186 C 1.579 15.178,1.420 15.171,1.373 15.129 C 1.323 15.083,1.320 14.749,1.320 8.255 C 1.320 1.946,1.324 1.426,1.370 1.375 C 1.417 1.322,1.694 1.320,8.995 1.320 C 16.002 1.320,16.574 1.324,16.625 1.370 M7.972 4.742 C 7.911 4.775,7.823 4.858,7.777 4.926 L 7.695 5.051 7.687 7.417 C 7.681 9.093,7.688 9.820,7.712 9.908 C 7.757 10.073,7.930 10.244,8.098 10.290 C 8.399 10.370,8.707 10.199,8.789 9.907 C 8.834 9.742,8.831 5.202,8.785 5.067 C 8.732 4.910,8.646 4.804,8.519 4.739 C 8.366 4.661,8.123 4.663,7.972 4.742 M12.615 4.707 C 12.415 4.757,12.265 4.901,12.211 5.093 C 12.169 5.247,12.169 9.753,12.211 9.907 C 12.293 10.199,12.601 10.370,12.902 10.290 C 13.067 10.245,13.242 10.074,13.287 9.914 C 13.331 9.754,13.333 5.253,13.289 5.093 C 13.252 4.963,13.136 4.815,13.024 4.757 C 12.918 4.703,12.726 4.680,12.615 4.707 " stroke="none" fill-rule="evenodd" fill="black"></path></svg>