<svg viewBox="0 0 20 20" xmlns="http://www.w3.org/2000/svg"><path d="M9.257 0.470 C 7.387 0.614,5.607 1.310,4.067 2.501 C 3.657 2.817,2.850 3.623,2.507 4.057 C 1.458 5.386,0.795 6.920,0.528 8.643 C 0.421 9.330,0.421 10.670,0.528 11.357 C 0.690 12.403,1.078 13.614,1.498 14.390 L 1.594 14.568 1.026 16.259 C 0.464 17.930,0.457 17.954,0.454 18.250 C 0.451 18.521,0.460 18.571,0.556 18.773 C 0.702 19.082,0.891 19.276,1.195 19.426 C 1.432 19.543,1.464 19.550,1.748 19.547 C 2.047 19.543,2.068 19.537,3.741 18.974 L 5.432 18.406 5.758 18.570 C 8.774 20.090,12.467 19.849,15.317 17.948 C 15.876 17.575,16.202 17.303,16.768 16.736 C 17.773 15.728,18.408 14.756,18.920 13.440 C 19.312 12.435,19.516 11.430,19.555 10.317 C 19.634 8.053,18.909 5.854,17.487 4.050 C 17.175 3.654,16.397 2.871,16.000 2.554 C 15.324 2.014,14.302 1.418,13.539 1.119 C 12.158 0.579,10.707 0.359,9.257 0.470 M11.200 1.650 C 12.190 1.804,12.981 2.056,13.826 2.487 C 14.598 2.882,15.239 3.343,15.879 3.965 C 17.251 5.301,18.107 7.018,18.370 8.967 C 18.425 9.372,18.426 10.589,18.372 11.000 C 18.115 12.964,17.245 14.714,15.863 16.052 C 14.547 17.325,12.973 18.089,11.083 18.372 C 10.624 18.441,9.282 18.431,8.800 18.356 C 7.865 18.211,7.098 17.966,6.210 17.531 C 5.826 17.342,5.564 17.233,5.496 17.233 C 5.436 17.233,4.565 17.507,3.560 17.841 C 2.140 18.314,1.720 18.441,1.677 18.414 C 1.530 18.322,1.526 18.341,2.159 16.441 C 2.493 15.437,2.767 14.565,2.767 14.504 C 2.767 14.430,2.665 14.187,2.468 13.787 C 2.035 12.913,1.791 12.145,1.643 11.200 C 1.559 10.662,1.560 9.343,1.644 8.800 C 1.868 7.358,2.424 6.029,3.266 4.917 C 4.083 3.838,5.076 3.023,6.317 2.416 C 7.243 1.962,8.180 1.706,9.350 1.587 C 9.649 1.556,10.865 1.598,11.200 1.650 M7.111 4.249 C 6.019 4.447,5.057 5.169,4.571 6.154 C 4.296 6.711,4.201 7.135,4.201 7.818 C 4.199 9.549,4.775 11.220,5.877 12.683 C 6.136 13.027,6.973 13.864,7.317 14.123 C 8.535 15.041,9.940 15.609,11.379 15.766 C 11.881 15.820,12.611 15.812,12.917 15.749 C 14.168 15.490,15.172 14.641,15.583 13.492 C 15.733 13.072,15.800 12.729,15.800 12.383 C 15.800 12.079,15.765 11.971,15.628 11.845 C 15.585 11.806,14.841 11.419,13.975 10.987 C 12.555 10.277,12.384 10.200,12.235 10.200 C 12.077 10.200,12.034 10.224,11.268 10.733 L 10.466 11.267 10.241 11.131 C 9.911 10.930,9.703 10.762,9.410 10.456 C 9.144 10.179,8.815 9.723,8.780 9.584 C 8.765 9.524,8.862 9.356,9.225 8.812 C 9.481 8.429,9.715 8.069,9.745 8.010 C 9.875 7.758,9.864 7.727,9.013 6.025 C 8.581 5.159,8.194 4.415,8.155 4.372 C 8.029 4.234,7.921 4.200,7.627 4.203 C 7.474 4.205,7.243 4.226,7.111 4.249 M8.011 6.522 L 8.605 7.711 8.078 8.497 C 7.551 9.282,7.550 9.284,7.550 9.472 C 7.550 9.636,7.575 9.712,7.741 10.039 C 8.212 10.970,9.030 11.788,9.961 12.259 C 10.289 12.425,10.364 12.450,10.528 12.450 C 10.716 12.450,10.719 12.448,11.504 11.923 L 12.291 11.395 13.476 11.988 L 14.662 12.581 14.645 12.682 C 14.498 13.532,13.856 14.277,13.038 14.548 C 12.540 14.713,12.094 14.729,11.267 14.612 C 8.216 14.183,5.815 11.762,5.382 8.680 C 5.314 8.192,5.314 7.479,5.382 7.184 C 5.537 6.515,6.022 5.901,6.646 5.584 C 6.848 5.482,7.260 5.343,7.384 5.335 C 7.402 5.334,7.684 5.868,8.011 6.522 " stroke="none" fill-rule="evenodd" fill="black"></path></svg>