<svg viewBox="0 0 22 19" xmlns="http://www.w3.org/2000/svg"><path d="M13.025 1.006 C 11.676 1.262,10.510 2.128,9.909 3.318 C 9.595 3.942,9.461 4.533,9.433 5.419 L 9.413 6.054 9.299 6.029 C 8.722 5.904,7.595 5.483,6.802 5.095 C 5.262 4.343,3.872 3.386,2.244 1.956 C 1.923 1.675,1.773 1.636,1.511 1.766 C 1.265 1.888,1.197 2.049,1.102 2.732 C 0.822 4.754,0.926 6.477,1.431 8.176 C 2.058 10.282,3.470 12.275,5.204 13.498 L 5.423 13.652 5.275 13.829 C 4.587 14.651,3.131 15.662,1.797 16.244 C 1.398 16.417,1.261 16.530,1.208 16.727 C 1.127 17.029,1.317 17.327,1.803 17.662 C 2.150 17.901,2.359 18.005,2.810 18.162 C 3.202 18.298,3.661 18.405,4.198 18.486 C 4.632 18.550,6.335 18.552,6.857 18.487 C 9.711 18.136,12.215 16.956,14.222 15.015 C 16.070 13.229,17.294 11.006,17.814 8.488 C 17.908 8.036,18.003 7.388,18.003 7.206 C 18.003 7.040,17.995 7.049,19.731 5.298 C 21.080 3.938,21.103 3.910,21.044 3.635 C 21.009 3.471,20.908 3.341,20.753 3.258 C 20.635 3.195,20.515 3.190,19.085 3.190 L 17.544 3.190 17.422 2.986 C 16.881 2.082,15.848 1.331,14.776 1.062 C 14.373 0.960,13.424 0.930,13.025 1.006 M14.465 2.153 C 15.385 2.357,16.158 2.973,16.628 3.877 C 16.854 4.314,16.830 4.306,18.074 4.320 L 19.116 4.331 18.049 5.401 C 16.847 6.608,16.935 6.475,16.866 7.205 C 16.610 9.913,15.264 12.569,13.200 14.440 C 11.472 16.006,9.394 16.982,7.059 17.325 C 6.189 17.452,4.805 17.453,4.080 17.327 C 3.733 17.267,3.212 17.127,2.998 17.037 L 2.878 16.987 2.988 16.925 C 3.049 16.891,3.247 16.780,3.428 16.678 C 3.906 16.410,4.619 15.930,5.042 15.592 C 5.703 15.062,6.615 14.061,6.767 13.697 C 6.837 13.529,6.833 13.434,6.750 13.250 C 6.692 13.124,6.627 13.067,6.362 12.911 C 5.362 12.323,4.331 11.312,3.608 10.212 C 2.767 8.932,2.290 7.552,2.125 5.925 C 2.073 5.419,2.092 3.575,2.150 3.472 C 2.183 3.413,2.213 3.429,2.441 3.616 C 4.533 5.340,6.903 6.590,9.112 7.136 C 9.785 7.302,10.132 7.329,10.292 7.228 C 10.538 7.072,10.539 7.067,10.564 5.850 C 10.584 4.890,10.597 4.713,10.663 4.473 C 10.916 3.561,11.508 2.828,12.322 2.419 C 13.005 2.075,13.716 1.987,14.465 2.153 " stroke="none" fill-rule="evenodd" fill="black"></path></svg>