<svg viewBox="0 0 22 18" xmlns="http://www.w3.org/2000/svg"><path d="M9.460 0.975 C 9.349 0.983,8.986 1.006,8.653 1.028 C 5.988 1.200,3.412 1.693,2.275 2.248 C 1.826 2.468,1.451 2.897,1.272 3.397 C 1.087 3.912,0.873 5.231,0.762 6.545 C 0.699 7.291,0.699 10.713,0.762 11.458 C 0.833 12.295,0.946 13.158,1.066 13.773 C 1.236 14.646,1.368 14.959,1.720 15.334 C 1.985 15.617,2.219 15.761,2.693 15.932 C 5.348 16.891,10.065 17.296,14.190 16.919 C 16.283 16.728,18.044 16.388,19.307 15.932 C 19.783 15.760,20.014 15.618,20.289 15.326 C 20.674 14.919,20.834 14.473,21.027 13.273 C 21.250 11.882,21.318 10.686,21.293 8.533 C 21.270 6.460,21.180 5.410,20.914 4.110 C 20.746 3.287,20.569 2.921,20.161 2.552 C 19.796 2.222,19.238 1.997,18.066 1.706 C 16.747 1.379,15.444 1.188,13.420 1.025 C 12.944 0.986,9.875 0.948,9.460 0.975 M12.888 2.129 C 15.246 2.260,17.307 2.590,18.743 3.067 C 19.461 3.305,19.614 3.476,19.777 4.217 C 20.030 5.364,20.132 6.526,20.156 8.526 C 20.182 10.685,20.096 12.083,19.853 13.417 C 19.712 14.191,19.643 14.387,19.440 14.590 C 19.284 14.747,19.221 14.778,18.755 14.932 C 16.379 15.720,12.437 16.098,8.947 15.874 C 6.647 15.727,4.791 15.427,3.387 14.976 C 2.776 14.780,2.574 14.664,2.435 14.427 C 2.252 14.113,2.049 13.050,1.918 11.715 C 1.823 10.749,1.823 7.247,1.918 6.288 C 2.026 5.200,2.191 4.195,2.329 3.776 C 2.403 3.553,2.574 3.353,2.781 3.248 C 3.387 2.942,5.083 2.548,6.655 2.350 C 8.750 2.086,10.794 2.013,12.888 2.129 M9.331 5.464 C 9.270 5.483,9.162 5.557,9.092 5.629 L 8.965 5.761 8.955 8.921 C 8.949 10.659,8.953 12.118,8.964 12.163 C 9.023 12.405,9.365 12.611,9.615 12.556 C 9.753 12.526,14.274 9.516,14.428 9.352 C 14.526 9.248,14.538 9.210,14.538 9.008 C 14.538 8.841,14.520 8.757,14.467 8.688 C 14.349 8.533,9.719 5.470,9.570 5.449 C 9.499 5.439,9.392 5.446,9.331 5.464 M11.633 8.098 C 12.375 8.592,12.969 9.008,12.953 9.022 C 12.926 9.047,10.224 10.847,10.129 10.904 C 10.093 10.925,10.083 10.535,10.083 9.000 L 10.083 7.068 10.184 7.134 C 10.240 7.170,10.892 7.604,11.633 8.098 " stroke="none" fill-rule="evenodd" fill="black"></path></svg>